<mxfile host="app.diagrams.net" agent="Mozilla/5.0 (Windows NT 10.0; Win64; x64) AppleWebKit/537.36 (KHTML, like Gecko) Chrome/136.0.0.0 Safari/537.36" version="27.0.9">
  <diagram name="CTX Stereo Workflow" id="CTXWorkflow1">
    <mxGraphModel dx="1285" dy="1775" grid="1" gridSize="10" guides="1" tooltips="1" connect="1" arrows="1" fold="1" page="1" pageScale="1" pageWidth="850" pageHeight="1100" math="0" shadow="0">
      <root>
        <mxCell id="0" />
        <mxCell id="1" parent="0" />
        <mxCell id="fcDv7DUjyoOsWU81vF-5-39" value="" style="rounded=1;whiteSpace=wrap;html=1;arcSize=4;dashed=1;dashPattern=8 8;fontFamily=Arial;" vertex="1" parent="1">
          <mxGeometry x="700" y="-40" width="400" height="410" as="geometry" />
        </mxCell>
        <mxCell id="fcDv7DUjyoOsWU81vF-5-36" value="" style="rounded=1;whiteSpace=wrap;html=1;arcSize=4;dashed=1;dashPattern=8 8;fontFamily=Arial;" vertex="1" parent="1">
          <mxGeometry x="20" y="-40" width="660" height="410" as="geometry" />
        </mxCell>
        <mxCell id="2" value="1. Загрузка изображений&lt;br&gt;Скачивание левого и правого изображений CTX с сервера ODE посредством REST API." style="rounded=1;whiteSpace=wrap;html=1;fillColor=none;strokeColor=#005AAA;fontFamily=Arial;" parent="1" vertex="1">
          <mxGeometry x="80" y="40" width="260" height="60" as="geometry" />
        </mxCell>
        <mxCell id="3" value="2. Предварительная обработка изображений&lt;br&gt;Преобразование в нужный формат, калибровка и др. средствами ISIS." style="rounded=1;whiteSpace=wrap;html=1;fillColor=none;strokeColor=#005AAA;fontFamily=Arial;" parent="1" vertex="1">
          <mxGeometry x="80" y="120" width="260" height="60" as="geometry" />
        </mxCell>
        <mxCell id="4" value="3. Инициализация метаданных&lt;br&gt;Создание файлов метаданных и копирование .cub файлов для стереоанализа." style="rounded=1;whiteSpace=wrap;html=1;fillColor=none;strokeColor=#005AAA;fontFamily=Arial;" parent="1" vertex="1">
          <mxGeometry x="80" y="200" width="260" height="60" as="geometry" />
        </mxCell>
        <mxCell id="5" value="4. Уточнение положения камеры и спутника для улучшения результата" style="rounded=1;whiteSpace=wrap;html=1;fillColor=none;strokeColor=#005AAA;fontFamily=Arial;" parent="1" vertex="1">
          <mxGeometry x="80" y="280" width="260" height="60" as="geometry" />
        </mxCell>
        <mxCell id="8" value="5. Создание DEM низкого разрешения" style="rounded=1;whiteSpace=wrap;html=1;fillColor=none;strokeColor=#005AAA;fontFamily=Arial;" parent="1" vertex="1">
          <mxGeometry x="380" y="40" width="260" height="60" as="geometry" />
        </mxCell>
        <mxCell id="fcDv7DUjyoOsWU81vF-5-35" style="edgeStyle=orthogonalEdgeStyle;rounded=0;orthogonalLoop=1;jettySize=auto;html=1;entryX=0.5;entryY=0;entryDx=0;entryDy=0;fontFamily=Arial;" edge="1" parent="1" source="9" target="11">
          <mxGeometry relative="1" as="geometry" />
        </mxCell>
        <mxCell id="fcDv7DUjyoOsWU81vF-5-43" style="edgeStyle=orthogonalEdgeStyle;rounded=0;orthogonalLoop=1;jettySize=auto;html=1;exitX=1;exitY=0.5;exitDx=0;exitDy=0;entryX=0;entryY=0.5;entryDx=0;entryDy=0;fontFamily=Arial;" edge="1" parent="1" source="9" target="fcDv7DUjyoOsWU81vF-5-31">
          <mxGeometry relative="1" as="geometry">
            <Array as="points">
              <mxPoint x="720" y="150" />
              <mxPoint x="720" y="150" />
            </Array>
          </mxGeometry>
        </mxCell>
        <mxCell id="9" value="6. Создание DEM высокого разрешения с учетом картографическое проекции изображений&amp;nbsp;" style="rounded=1;whiteSpace=wrap;html=1;fillColor=none;strokeColor=#005AAA;fontFamily=Arial;" parent="1" vertex="1">
          <mxGeometry x="380" y="120" width="260" height="60" as="geometry" />
        </mxCell>
        <mxCell id="11" value="7. Скачивание данных из PEDR для правильной геопривязки" style="rounded=1;whiteSpace=wrap;html=1;fillColor=none;strokeColor=#005AAA;fontFamily=Arial;" parent="1" vertex="1">
          <mxGeometry x="380" y="200" width="260" height="60" as="geometry" />
        </mxCell>
        <mxCell id="fcDv7DUjyoOsWU81vF-5-34" style="edgeStyle=orthogonalEdgeStyle;rounded=0;orthogonalLoop=1;jettySize=auto;html=1;entryX=0;entryY=0.5;entryDx=0;entryDy=0;fontFamily=Arial;" edge="1" parent="1" source="12" target="13">
          <mxGeometry relative="1" as="geometry">
            <Array as="points">
              <mxPoint x="740" y="310" />
              <mxPoint x="740" y="230" />
            </Array>
          </mxGeometry>
        </mxCell>
        <mxCell id="fcDv7DUjyoOsWU81vF-5-42" style="edgeStyle=orthogonalEdgeStyle;rounded=0;orthogonalLoop=1;jettySize=auto;html=1;exitX=1;exitY=0.5;exitDx=0;exitDy=0;entryX=0;entryY=0.5;entryDx=0;entryDy=0;fontFamily=Arial;" edge="1" parent="1" source="12" target="fcDv7DUjyoOsWU81vF-5-30">
          <mxGeometry relative="1" as="geometry">
            <Array as="points">
              <mxPoint x="760" y="310" />
              <mxPoint x="760" y="310" />
            </Array>
          </mxGeometry>
        </mxCell>
        <mxCell id="12" value="8. Получение облака точек&amp;nbsp;" style="rounded=1;whiteSpace=wrap;html=1;fillColor=none;strokeColor=#005AAA;fontFamily=Arial;" parent="1" vertex="1">
          <mxGeometry x="380" y="280" width="260" height="60" as="geometry" />
        </mxCell>
        <mxCell id="13" value="Получение финальной карты высот" style="rounded=1;whiteSpace=wrap;html=1;fillColor=none;strokeColor=#005AAA;fontFamily=Arial;" parent="1" vertex="1">
          <mxGeometry x="790" y="200" width="260" height="60" as="geometry" />
        </mxCell>
        <mxCell id="20" style="edgeStyle=orthogonalEdgeStyle;endArrow=block;endFill=1;strokeColor=#000000;fontFamily=Arial;" parent="1" source="2" target="3" edge="1">
          <mxGeometry relative="1" as="geometry" />
        </mxCell>
        <mxCell id="21" style="edgeStyle=orthogonalEdgeStyle;endArrow=block;endFill=1;strokeColor=#000000;fontFamily=Arial;" parent="1" source="3" target="4" edge="1">
          <mxGeometry relative="1" as="geometry" />
        </mxCell>
        <mxCell id="22" style="edgeStyle=orthogonalEdgeStyle;endArrow=block;endFill=1;strokeColor=#000000;fontFamily=Arial;" parent="1" source="4" target="5" edge="1">
          <mxGeometry relative="1" as="geometry" />
        </mxCell>
        <mxCell id="23" style="edgeStyle=orthogonalEdgeStyle;endArrow=block;endFill=1;strokeColor=#000000;fontFamily=Arial;" parent="1" source="5" edge="1">
          <mxGeometry relative="1" as="geometry">
            <mxPoint x="380" y="70" as="targetPoint" />
            <Array as="points">
              <mxPoint x="360" y="310" />
              <mxPoint x="360" y="70" />
            </Array>
          </mxGeometry>
        </mxCell>
        <mxCell id="24" style="edgeStyle=orthogonalEdgeStyle;endArrow=block;endFill=1;strokeColor=#000000;fontFamily=Arial;" parent="1" edge="1">
          <mxGeometry relative="1" as="geometry">
            <mxPoint x="510" y="100" as="sourcePoint" />
            <mxPoint x="510" y="120" as="targetPoint" />
          </mxGeometry>
        </mxCell>
        <mxCell id="29" style="edgeStyle=orthogonalEdgeStyle;endArrow=block;endFill=1;strokeColor=#000000;fontFamily=Arial;" parent="1" source="11" target="12" edge="1">
          <mxGeometry relative="1" as="geometry" />
        </mxCell>
        <mxCell id="fcDv7DUjyoOsWU81vF-5-30" value="Создание 3D модели в формате .obj" style="rounded=1;whiteSpace=wrap;html=1;fillColor=none;strokeColor=#005AAA;fontFamily=Arial;" vertex="1" parent="1">
          <mxGeometry x="790" y="280" width="260" height="60" as="geometry" />
        </mxCell>
        <mxCell id="fcDv7DUjyoOsWU81vF-5-31" value="Получение карты рассогласования" style="rounded=1;whiteSpace=wrap;html=1;fillColor=none;strokeColor=#005AAA;fontFamily=Arial;" vertex="1" parent="1">
          <mxGeometry x="790" y="120" width="260" height="60" as="geometry" />
        </mxCell>
        <mxCell id="fcDv7DUjyoOsWU81vF-5-37" value="Text" style="text;html=1;align=center;verticalAlign=middle;whiteSpace=wrap;rounded=0;fontFamily=Arial;" vertex="1" parent="1">
          <mxGeometry x="280" y="200" width="60" height="30" as="geometry" />
        </mxCell>
        <mxCell id="fcDv7DUjyoOsWU81vF-5-38" value="Предварительная обработка" style="text;html=1;align=center;verticalAlign=middle;whiteSpace=wrap;rounded=0;fontFamily=Arial;" vertex="1" parent="1">
          <mxGeometry x="265" y="-20" width="170" height="30" as="geometry" />
        </mxCell>
        <mxCell id="fcDv7DUjyoOsWU81vF-5-40" value="Итоговый результат" style="text;html=1;align=center;verticalAlign=middle;whiteSpace=wrap;rounded=0;fontFamily=Arial;" vertex="1" parent="1">
          <mxGeometry x="840" y="-20" width="120" height="30" as="geometry" />
        </mxCell>
      </root>
    </mxGraphModel>
  </diagram>
</mxfile>
